<?xml version="1.0" encoding="utf-8"?>
<!-- Generator: Adobe Illustrator 16.0.0, SVG Export Plug-In . SVG Version: 6.00 Build 0)  -->
<!DOCTYPE svg PUBLIC "-//W3C//DTD SVG 1.1//EN" "http://www.w3.org/Graphics/SVG/1.1/DTD/svg11.dtd">
<svg version="1.1" id="Layer_1" xmlns="http://www.w3.org/2000/svg" xmlns:xlink="http://www.w3.org/1999/xlink" x="0px" y="0px"
	 width="47.993px" height="41.76px" viewBox="0 0 47.993 41.76" enable-background="new 0 0 47.993 41.76" xml:space="preserve">
<g>
	<path d="M13.68,41.76c-0.08,0-0.16,0-0.24,0c-0.004-0.442-0.082-0.899,0.003-1.324c0.131-0.658,0.392-1.289,0.564-1.94
		c0.606-2.29,0.601-2.291,2.846-2.384c2.668-0.109,4.643-2.122,4.609-4.794c-0.028-2.189-0.19-4.377-0.225-6.566
		c-0.02-1.275-0.707-1.921-1.708-2.604c-1.488-1.016-2.868-2.228-4.142-3.506c-1.047-1.051-1.873-1.998-3.573-2.344
		C5.516,15.013,1.049,9.782,0.334,3.391C0.313,3.21,0.115,3.05,0,2.88C0,2.8,0,2.72,0,2.64c0.398-0.201,0.786-0.547,1.197-0.579
		c1.822-0.139,3.65-0.199,5.477-0.262c0.885-0.031,1.773-0.005,2.813-0.005C9.143,0.22,10.12,0.347,11.048,0.348
		c7.906,0.008,15.812,0.01,23.717-0.01C35.177,0.337,35.588,0.117,36,0c0.8,0,1.6,0,2.399,0c-0.04,0.544-0.081,1.089-0.133,1.793
		c0.562,0,0.99,0,1.418,0c2.158,0,4.316-0.021,6.475,0.009c1.243,0.018,1.643,0.534,1.471,1.75
		c-0.945,6.668-5.827,11.71-12.423,12.93c-0.617,0.114-1.317,0.572-1.688,1.082c-1.447,1.996-3.138,3.668-5.351,4.803
		c-0.785,0.402-1.409,0.933-1.416,2.002c-0.019,2.624-0.214,5.249-0.191,7.872c0.014,1.551,1.721,3.376,3.199,3.594
		c0.783,0.115,1.604-0.034,2.392,0.064c0.456,0.057,1.164,0.27,1.271,0.581c0.54,1.559,0.919,3.174,1.397,4.925
		c-0.584,0-1.014,0-1.443,0c-6.154,0-12.308-0.007-18.462,0.016C14.503,41.423,14.092,41.642,13.68,41.76z M12.334,14.65
		c-0.996-3.703-1.984-7.378-2.989-11.117C9.363,3.537,9.247,3.5,9.131,3.5C7.973,3.492,6.815,3.488,5.658,3.487
		c-1.99-0.001-2.293,0.386-1.838,2.334c0.054,0.231,0.104,0.464,0.163,0.694C5.019,10.628,8.658,14.146,12.334,14.65z M38.673,3.492
		c-1.053,3.867-2.049,7.53-3.111,11.434c1.192-0.564,2.307-0.976,3.302-1.584c3.061-1.87,4.835-4.64,5.388-8.173
		c0.127-0.807,0.134-1.669-1.072-1.675C41.625,3.486,40.07,3.492,38.673,3.492z"/>
	<path fill-rule="evenodd" clip-rule="evenodd" fill="#FFFFFF" d="M13.68,41.76c0.412-0.118,0.823-0.337,1.236-0.338
		c6.154-0.022,12.308-0.016,18.462-0.016c0.43,0,0.859,0,1.443,0c-0.479-1.751-0.857-3.366-1.397-4.925
		c-0.107-0.312-0.815-0.524-1.271-0.581c-0.788-0.099-1.608,0.051-2.392-0.064c-1.479-0.218-3.186-2.043-3.199-3.594
		c-0.022-2.623,0.173-5.248,0.191-7.872c0.007-1.069,0.631-1.6,1.416-2.002c2.213-1.135,3.903-2.808,5.351-4.803
		c0.37-0.51,1.07-0.968,1.688-1.082c6.596-1.22,11.478-6.262,12.423-12.93c0.172-1.216-0.228-1.733-1.471-1.75
		c-2.158-0.03-4.316-0.009-6.475-0.009c-0.428,0-0.856,0-1.418,0C38.318,1.089,38.359,0.544,38.399,0c3.195,0,6.392,0,9.594,0
		c0,13.896,0,27.792,0,41.76C36.56,41.76,25.12,41.76,13.68,41.76z"/>
	<path fill-rule="evenodd" clip-rule="evenodd" fill="#FFFFFF" d="M0,2.88C0.115,3.05,0.313,3.21,0.334,3.391
		c0.715,6.391,5.182,11.622,11.479,12.905c1.701,0.347,2.526,1.293,3.573,2.344c1.274,1.279,2.654,2.491,4.142,3.506
		c1.001,0.684,1.688,1.329,1.708,2.604c0.035,2.189,0.197,4.377,0.225,6.566c0.034,2.672-1.941,4.685-4.609,4.794
		c-2.246,0.093-2.24,0.094-2.846,2.384c-0.172,0.651-0.433,1.282-0.564,1.94c-0.085,0.425-0.007,0.882-0.003,1.324
		c-4.47,0-8.939,0-13.439,0C0,28.8,0,15.84,0,2.88z"/>
	<path fill-rule="evenodd" clip-rule="evenodd" fill="#FFFFFF" d="M36,0c-0.412,0.117-0.823,0.337-1.235,0.338
		c-7.905,0.02-15.811,0.019-23.717,0.01C10.12,0.347,9.143,0.22,9.487,1.793c-1.04,0-1.928-0.025-2.813,0.005
		C4.847,1.862,3.019,1.922,1.197,2.061C0.786,2.092,0.398,2.438,0,2.64C0,1.763,0,0.885,0,0C12,0,24,0,36,0z"/>
	<path fill-rule="evenodd" clip-rule="evenodd" fill="#FFFFFF" d="M12.334,14.65c-3.676-0.504-7.315-4.022-8.352-8.135
		c-0.058-0.23-0.108-0.463-0.163-0.694C3.365,3.873,3.668,3.486,5.658,3.487c1.158,0,2.315,0.004,3.473,0.012
		c0.116,0,0.232,0.037,0.214,0.034C10.35,7.272,11.338,10.947,12.334,14.65z"/>
	<path fill-rule="evenodd" clip-rule="evenodd" fill="#FFFFFF" d="M38.673,3.492c1.397,0,2.952-0.005,4.506,0.001
		c1.206,0.006,1.199,0.868,1.072,1.675c-0.553,3.533-2.327,6.303-5.388,8.173c-0.995,0.608-2.109,1.02-3.302,1.584
		C36.624,11.022,37.62,7.359,38.673,3.492z"/>
</g>
</svg>
